<svg width="7" height="14" viewBox="0 0 7 14" fill="none" xmlns="http://www.w3.org/2000/svg">
<path d="M6.99696 5.67534L6.77408 7.62507C6.75418 7.81135 6.59895 7.9521 6.41985 7.9521H4.41389L4.40594 13.4163C4.40594 13.7392 4.15519 14 3.84474 14H2.43182C2.12137 14 1.87063 13.7392 1.87063 13.4163L1.87859 7.95624H0.366169C0.171146 7.95624 0.0119431 7.79066 0.00796305 7.58782L0 5.63808C0 5.43111 0.159203 5.26552 0.358206 5.26552H1.86665V3.37788C1.86665 1.19219 3.14824 0 5.02285 0H6.55915C6.75418 0 6.91736 0.165583 6.91736 0.372561V2.01597C6.91736 2.21881 6.75815 2.38853 6.56313 2.38853H5.61986C4.60096 2.38853 4.40195 2.89355 4.40195 3.6304V5.26138H6.64273C6.85766 5.26138 7.02482 5.45594 6.99696 5.67534Z" fill="#505050"/>
</svg>
