<svg width="14" height="13" viewBox="0 0 14 13" fill="none" xmlns="http://www.w3.org/2000/svg">
<path d="M13.2552 3.74784C13.2323 3.14978 13.1588 2.56091 12.9155 2.00885C12.4793 1.02895 11.7262 0.430881 10.6977 0.168652C10.2294 0.0490394 9.74728 0.0214363 9.26976 0.0168358C7.97954 0.00763483 6.68931 -0.00616668 5.39908 0.00303433C4.78841 0.00763483 4.17773 0.0122353 3.58083 0.164052C2.185 0.522891 1.35852 1.41999 1.0968 2.82774C1.00956 3.28779 0.991194 3.76625 0.982011 4.2401C0.963644 5.45003 0.963647 6.66456 0.97283 7.87449C0.977421 8.49096 0.982013 9.11663 1.13353 9.7239C1.49168 11.127 2.39621 11.9505 3.80122 12.2174C4.18692 12.291 4.58638 12.291 4.97666 12.3232C5.01339 12.3278 5.05472 12.337 5.09145 12.3416C6.44596 12.3416 7.79588 12.3416 9.15038 12.3416C9.27895 12.3324 9.40751 12.3186 9.53608 12.314C10.1192 12.291 10.6977 12.222 11.2395 11.9873C12.2405 11.5549 12.8466 10.7866 13.1129 9.7377C13.2277 9.27305 13.2506 8.79459 13.2644 8.31614C13.2644 8.27934 13.2782 8.23793 13.2828 8.20113C13.2828 6.84398 13.2828 5.49143 13.2828 4.13429C13.2736 4.00547 13.2598 3.87666 13.2552 3.74784ZM7.11633 9.33745C5.36695 9.33285 3.95275 7.9113 3.95734 6.14931C3.96193 4.40111 5.38072 2.98876 7.13469 2.99336C8.88407 2.99796 10.2983 4.41952 10.2937 6.18151C10.2845 7.9297 8.86571 9.34205 7.11633 9.33745ZM10.638 3.25099C10.2294 3.25099 9.89422 2.91055 9.89422 2.50111C9.89422 2.09626 10.2294 1.76043 10.6335 1.76043C11.0467 1.76043 11.3819 2.08706 11.3819 2.50111C11.3819 2.91515 11.0513 3.24639 10.638 3.25099Z" fill="#505050"/>
</svg>
