<svg width="93" height="30" viewBox="0 0 93 30" fill="none" xmlns="http://www.w3.org/2000/svg">
<path fill-rule="evenodd" clip-rule="evenodd" d="M85.7008 18.1848C87.8925 18.337 90.3309 18.7917 91.5848 19.9928C92.1432 20.5297 92.4223 21.1954 92.5082 21.9685C92.5082 25.1467 87.5476 26.9506 80.0959 28.6901C76.3808 29.549 72.0644 30 68.0487 30C64.9349 30 61.9714 29.7423 59.5877 29.184C53.811 27.8525 52.0931 26.0057 49.9456 23.1067C48.4424 21.088 48.1203 18.8976 47.927 17.4374L47.9198 17.3872C47.8374 16.8099 47.7731 16.3588 47.6478 16.1918C47.6389 16.1918 47.63 16.1882 47.6196 16.1838C47.6049 16.1777 47.5871 16.1704 47.5619 16.1704C47.4116 16.1704 46.8747 16.2992 45.6292 17.9957C44.7058 19.2412 44.126 20.2935 43.8253 20.8733C43.7843 20.9471 43.7496 21.0115 43.7199 21.0665C43.6719 21.1556 43.6371 21.22 43.6106 21.2598C43.5462 21.3672 43.4603 21.4316 43.3314 21.4531C42.9664 21.5175 42.451 21.2598 42.3006 21.1525C42.0804 21.0123 42.0842 20.4989 42.0857 20.2908C42.0858 20.2757 42.0859 20.2622 42.0859 20.2505C42.0859 20.1086 42.1014 19.9511 42.1185 19.7781C42.1298 19.6632 42.1418 19.5415 42.1503 19.413C42.157 19.3398 42.1642 19.2635 42.1716 19.1842C42.2122 18.7521 42.261 18.2328 42.2792 17.6521C42.3221 15.8482 42.2147 15.2899 42.1503 15.1181C41.8282 15.5047 40.7545 17.2441 39.7881 19.0265C38.6714 21.1095 38.4352 21.3457 38.1775 21.3672C37.8984 21.3672 37.5762 21.2384 37.2971 21.0021C37.0394 20.7874 37.1467 18.9191 37.1897 18.4467C37.2144 18.2611 37.2463 18.047 37.2812 17.8126C37.3069 17.6402 37.3342 17.4567 37.3615 17.2656C37.4689 16.5999 37.5762 15.9341 37.5762 15.5691C37.5762 15.2899 37.4903 15.1611 37.4259 15.1181C37.4044 15.0966 37.383 15.0966 37.3615 15.1181C36.6314 15.7409 35.7938 17.1152 35.1926 18.146C35.1127 18.2943 35.0268 18.4607 34.9349 18.6389C34.8537 18.7962 34.7678 18.9627 34.6772 19.1339C33.9256 20.5512 33.4531 21.4316 33.0451 21.4961C32.9377 21.5175 32.8303 21.4746 32.7659 21.4102C32.3579 21.0021 31.1553 18.3178 31.7351 16.3207C32.0143 15.3758 32.2076 14.9034 32.8518 14.2591C32.5727 14.1518 32.1002 13.8941 31.6278 13.4216C31.413 13.6578 30.9191 14.0444 30.1246 14.1088C30.1031 14.1732 30.1031 14.2806 30.1031 14.388V14.388C30.1031 14.5168 30.1031 14.6672 30.0816 14.8175C30.0172 15.4832 29.8669 16.0845 29.6092 16.7502C28.471 19.7351 26.7745 21.6679 26.0229 21.4102C25.4646 21.2169 24.3264 20.3794 23.8969 18.554C23.4245 19.456 22.4581 21.2598 21.7709 21.4746H21.728C21.1911 21.5175 20.7616 20.8089 20.2892 19.1124C20.0744 18.3822 19.9671 17.8883 19.9026 17.5877C19.4087 18.5755 18.2276 20.8089 17.3042 21.3672C17.1324 21.4531 16.8533 21.4316 16.5741 21.3028C16.209 21.131 15.3071 20.5082 14.8776 18.4681C14.2548 18.9191 13.0308 19.8855 11.7208 21.2384C11.2699 21.6464 10.3894 21.5605 9.95991 21.1954C9.6378 20.9163 9.87401 20.4223 10.1532 19.8425C10.282 19.5848 10.4109 19.3057 10.4968 19.0265C10.4968 18.9835 10.5183 18.9191 10.5397 18.8547C11.5705 15.7194 11.2269 14.7101 10.7545 14.4094L10.69 14.3665C10.2391 14.0659 9.87401 13.8511 7.31854 14.9678C8.32784 16.5354 8.64996 17.3944 8.64996 18.5755C8.64996 20.4009 6.80315 21.5605 3.94703 21.5605C1.39155 21.5605 0.53257 20.7015 0.274875 20.2505L0.231926 20.1861C-0.0257695 19.7996 -0.0687187 19.3271 0.103078 18.9406C0.167502 18.8117 0.403722 18.3393 0.76879 17.9313C1.40465 17.2318 2.50073 16.5742 3.76799 15.8139L3.81818 15.7838C4.16178 15.5906 4.46242 15.4188 4.76306 15.247C4.48103 14.8333 4.16607 14.4197 3.81819 13.9628C3.76875 13.8978 3.71863 13.832 3.66786 13.7652C0.897638 10.1145 0.0171797 8.54689 0.0171797 7.25841C0.0171797 5.96994 1.13386 4.46671 3.47459 2.57695C6.28776 0.343594 7.61918 0 8.15605 0C9.42305 0 10.0673 1.00931 10.0888 3.02792C10.0888 5.58339 8.43522 7.83822 8.04868 7.96707C7.96278 7.98855 7.8554 7.98855 7.72656 7.8597C7.38296 7.51611 6.91052 6.22763 7.08232 5.77666C7.13064 5.6156 7.21519 5.45455 7.29975 5.29349C7.32794 5.2398 7.35612 5.18611 7.38296 5.13243C7.38862 5.12156 7.39428 5.11066 7.39997 5.09974C7.67504 4.57111 7.98425 3.97688 7.98425 3.13529C7.98425 1.88976 7.10379 1.78239 7.10379 1.78239C6.28776 1.78239 5.08518 2.534 4.2262 3.15676C2.18611 4.63851 1.73515 5.81961 1.73515 6.14173V6.20616L1.73514 6.21496C1.73499 6.62296 1.73476 7.24347 4.65569 11.1238C5.665 12.4767 6.28776 13.3357 6.7602 14.0444C8.88618 12.9277 10.3465 12.4123 11.3558 12.4123C11.7853 12.4123 12.1074 12.5412 12.408 12.8633C12.6657 13.1424 13.0523 13.8726 13.0093 15.7623C12.9449 17.4374 12.6657 18.5326 12.6442 18.5755C12.6442 18.5755 12.6228 18.6829 12.6013 18.8117C13.0737 18.4681 13.8898 17.9313 14.7058 17.5447C14.4696 15.5906 14.942 14.7745 15.3286 14.1088L15.393 13.98C15.8654 13.1854 16.7244 12.4982 17.5834 12.262C18.1847 12.0902 19.0651 12.4123 19.5805 12.7559C19.5591 11.5748 19.6235 9.40587 20.6972 6.05583C21.8783 2.40515 23.9399 0.386543 24.4767 0.51539C24.9062 0.622763 25.8511 1.4388 25.937 1.86829C26.0229 2.27631 25.3142 5.4975 24.0902 8.56836C22.952 11.4245 21.4703 14.2806 21.277 14.6457C21.2781 14.6654 21.2794 14.6916 21.2811 14.7238C21.3112 15.3233 21.4453 17.9926 22.179 19.1339C22.3078 19.0694 22.8232 18.7688 23.6607 17.0508V17.0079V16.879C23.6607 13.8726 25.8726 12.2405 26.7745 12.2405C27.2684 12.2405 27.9986 12.9062 28.2777 13.2713C28.4495 13.4646 28.4925 13.6149 28.471 13.7437C28.4281 13.8296 28.3422 13.9155 28.1918 13.9585C28.0415 14.0229 27.7194 14.0659 27.5261 13.9155C27.3329 13.7652 27.0966 13.6578 27.0107 13.6578L26.9893 13.6793C26.1303 14.4524 25.6578 15.5476 25.6578 16.7502C25.6578 18.554 26.5168 19.6063 26.753 19.7781C26.9034 19.6492 27.5261 18.8547 28.4066 16.5354C28.9864 14.9678 28.922 14.0873 28.8575 13.7867V13.7652C28.8361 13.7008 28.8146 13.529 28.9434 13.3787C29.0723 13.2498 29.2656 13.1854 29.5662 13.1854C30.0387 13.1854 30.7258 13.0136 31.0694 12.7344C30.4467 11.811 30.1246 10.6514 30.1246 9.25555C30.1246 6.29205 31.5848 5.00358 32.0573 5.00358C32.5082 5.00358 34.0115 6.05583 34.4839 6.87187C34.7631 7.40873 34.8275 7.9456 34.8275 8.07445C34.8275 8.39656 34.7631 9.2985 34.0544 10.4796C33.4531 11.5104 32.7659 12.2835 32.4868 12.5841C32.723 12.7559 33.3028 13.121 34.6772 13.6793C34.8919 13.7867 34.9993 13.9155 35.0422 14.0873C35.0852 14.2806 34.9778 14.5383 34.7416 14.8389C34.6965 14.8953 34.6455 14.9517 34.5917 15.0111C34.543 15.065 34.492 15.1213 34.4409 15.1825C33.947 15.7194 33.3457 16.4066 33.2813 17.5018C33.2384 18.4252 33.3887 18.9835 33.4746 19.1983C33.7538 18.8117 33.947 18.4252 34.2047 17.8883C34.2225 17.8528 34.2405 17.8167 34.2589 17.7799C34.5961 17.1044 35.0459 16.2034 35.9012 14.8389C36.9105 13.2498 37.7266 12.2835 38.5426 12.6915C39.1439 12.9492 39.4875 13.1639 39.466 14.7101C39.466 15.4052 39.3007 16.486 39.1569 17.4259C39.1453 17.5023 39.1337 17.5778 39.1224 17.6521L39.1223 17.6526C39.0794 17.9745 39.0365 18.2965 38.9936 18.554C39.4271 17.9038 40.2252 16.4939 40.8385 15.4106C40.9543 15.2059 41.0635 15.0129 41.1625 14.8389C41.2934 14.6083 41.4134 14.3958 41.52 14.2071C41.7805 13.7458 41.9605 13.4272 42.0215 13.3357C42.3436 12.8848 42.9664 12.8418 43.5247 12.8418C43.6535 12.8418 43.7609 12.8848 43.8468 12.9921C43.9757 13.121 44.3407 13.5075 44.1689 16.1274C44.126 16.6213 44.0186 17.3729 43.9112 18.0172C43.8969 18.1174 43.8826 18.2224 43.8683 18.3274C43.8397 18.5373 43.811 18.7473 43.7824 18.9191C43.8481 18.8096 43.9306 18.6833 44.0184 18.5489C44.1028 18.4196 44.1921 18.2828 44.2763 18.146C44.3707 18.0019 44.4698 17.8485 44.5724 17.6897C44.913 17.1624 45.2926 16.5746 45.6722 16.063C46.6815 14.6886 47.4331 14.1088 48.9792 14.4524C49.4517 14.5598 49.5161 15.612 49.602 17.3085C49.6235 17.9098 49.645 18.4681 49.7094 18.8332C49.9456 20.4223 50.9764 22.8275 52.7373 24.6314C54.4982 26.4352 56.1088 27.423 61.005 28.4968C65.3858 29.4631 72.2792 29.2484 78.5927 27.9384C84.0043 26.8218 91.1768 24.9964 91.1768 22.1403C91.1768 21.539 90.8976 21.0021 90.3393 20.5512C89.4082 19.7828 87.7847 19.2884 85.7008 19.076V19.2198C85.7008 20.5727 84.9492 21.2384 83.3815 21.2384H77.3472C77.0465 21.2384 76.9177 21.0236 76.9177 20.8089V19.4933C76.7817 19.5151 76.6453 19.5375 76.5084 19.5606C76.7626 20.2885 76.7532 20.3983 76.7242 20.6156C76.7027 20.6586 76.7027 20.7015 76.7027 20.7445C76.6812 21.3243 75.8437 21.4531 75.629 21.4531H73.0091C71.6507 21.4531 70.6153 21.4507 69.8253 21.4447C66.129 22.751 64.1514 23.8695 63.1525 24.4381C62.5297 24.8032 62.3364 24.9105 62.1861 24.7602L62.0358 24.6099L62.2076 24.5025C64.2419 23.2317 66.1866 22.2187 68.0118 21.4106C67.285 21.3786 67.265 21.3252 67.233 21.2398L67.2324 21.2384L67.1895 21.131L67.3398 21.0236H67.3827C68.0921 20.9798 68.714 20.9316 69.263 20.8803C70.9596 20.1933 72.5398 19.6837 73.9768 19.3044C73.7506 18.7139 73.0976 16.9696 72.0427 14.1088C71.4414 14.4524 70.8187 14.6242 70.153 14.6242C69.3369 14.6242 68.3276 13.8941 68.027 13.6578C67.8552 13.529 67.2324 13.3357 66.6311 13.6149C65.3856 17.6521 64.4193 20.7445 64.3334 20.9163C64.2045 21.2169 63.9683 21.4316 63.7535 21.4316H62.8516H57.0535C57.0378 21.4316 57.0216 21.432 57.0048 21.4323C56.8836 21.4346 56.7372 21.4375 56.624 21.3243C56.5596 21.2384 56.5166 21.1525 56.5166 21.0236V0.687187C56.5166 0.429492 56.5166 0 56.9461 0H59.0506C59.2224 0 59.5445 0 59.5445 0.429492V19.9069C59.5445 20.1646 59.5875 20.2076 59.7378 20.2076H63.0663C63.6462 20.2076 63.6676 20.1861 63.775 19.9284C63.8824 19.6707 67.0821 9.3844 67.2324 8.82606C67.3613 8.35361 67.4686 7.70938 67.4686 7.45168V2.59843V2.4481C67.4686 2.43483 67.4604 2.42976 67.4491 2.42276C67.4421 2.41843 67.4339 2.41336 67.4257 2.40515L67.3827 2.3622C67.0606 2.06156 66.6311 1.65354 66.5023 1.48175C66.3305 1.24553 66.2446 0.987831 66.2661 0.708661C66.2875 0.365068 66.8673 0 67.168 0H72.3004C72.5366 0 73.0306 0 73.2238 0.343593C73.4601 0.816034 73.2453 1.28848 73.1379 1.50322L73.1165 1.54617C73.0735 1.65354 72.9017 1.88976 72.644 2.21188C72.6049 2.27706 72.5579 2.33432 72.5174 2.38367C72.4911 2.41562 72.4676 2.44426 72.4507 2.46958C72.2575 2.7058 72.1931 2.89907 72.1931 3.07087V8.07445C72.1931 8.35361 72.2575 8.71868 72.3219 8.91195C72.3434 8.9549 72.6225 9.64209 72.9661 10.5011L73.203 11.0932C74.07 13.2598 75.3219 16.3883 75.9296 17.9957C76.0436 18.2968 76.1421 18.5584 76.2271 18.7867C76.4628 18.7404 76.693 18.6978 76.9177 18.6585V0.944882V0.858984C76.9177 0.839994 76.9175 0.820332 76.9174 0.800132C76.9156 0.591906 76.9133 0.326502 77.0895 0.150322C77.1969 0.0429492 77.3257 0 77.4975 0H83.2098C84.8204 0 85.7008 0.751611 85.7008 2.08304V7.32283C85.7008 7.88117 85.2928 8.67573 84.6271 9.0408C85.3143 9.34145 85.7008 10.0716 85.7008 11.1453V18.1848ZM82.7588 18.1285V9.89979C82.7588 9.59914 82.5011 9.40587 82.2649 9.40587V9.42735H79.3873C79.3443 9.44882 79.2799 9.62062 79.2799 9.77094V18.3311C80.3853 18.2185 81.2506 18.1877 81.8354 18.1675C81.9857 18.146 82.1145 18.146 82.2219 18.146C82.3844 18.1395 82.5643 18.1334 82.7588 18.1285ZM79.2799 19.1767V20.1002V20.2291H79.3658H81.9857C82.3078 20.2291 82.544 20.1646 82.6514 20.0573C82.7588 19.9284 82.7588 19.7566 82.7588 19.5848V19.4775V18.9593C81.6646 18.974 80.498 19.0463 79.2799 19.1767ZM31.7996 10.1145C31.7996 10.6514 31.9928 11.3171 32.1002 11.6822C33.1954 10.4367 33.7108 9.44882 33.7323 8.63278C33.7323 7.83823 33.5175 7.51611 33.3457 7.25841C33.1954 7.04366 33.0666 6.93629 32.9807 6.93629H32.9592C32.0358 7.73085 31.7996 9.36292 31.7996 10.1145ZM24.0258 6.57122C24.5197 5.21833 24.8203 3.19971 24.9062 2.534C24.6271 2.68432 23.9184 3.28561 22.9306 5.51897C21.7065 8.33214 21.3629 11.1453 21.277 12.67C22.544 10.5225 23.5319 7.96707 24.0258 6.57122ZM17.4545 19.1553C17.7767 18.8117 19.5161 16.0845 19.645 15.8053C19.6879 15.5476 19.6664 15.4402 19.6235 15.2255V15.1825C19.6197 15.1673 19.6159 15.1517 19.612 15.1357C19.5497 14.8791 19.4605 14.5117 18.9148 14.0873C18.3135 13.6149 17.927 13.5075 17.6478 13.7008C16.9606 14.1732 16.6385 15.1825 16.6815 16.6858C16.7029 17.9098 17.2398 19.0265 17.4545 19.1553ZM3.88261 20.68C6.28776 20.68 6.82462 19.4775 6.82462 19.005C6.82462 18.4896 6.56693 17.781 5.25698 15.9341C5.10101 16.0192 4.94504 16.0949 4.78289 16.1736C4.69946 16.2141 4.61439 16.2554 4.52684 16.2992L4.35505 16.3851C3.08805 17.0294 2.16464 17.5018 1.6063 18.0816C1.49893 18.2105 1.37008 18.6614 1.45598 19.1339C1.75662 19.9499 2.16464 20.68 3.88261 20.68ZM68.1773 7.47316C68.1773 8.24624 68.1558 8.82606 68.027 9.14817C68.007 9.19809 67.8803 9.60074 67.6921 10.1986C67.4756 10.8868 67.1776 11.8336 66.8673 12.7989C67.1036 12.7344 67.3398 12.713 67.619 12.713C68.0729 12.713 68.4725 12.8944 68.8676 13.0738L68.9719 13.121C69.4014 13.3357 69.7879 13.5075 70.1315 13.4431C70.5825 13.3357 71.1837 13.121 71.5918 12.8848C71.4547 12.5112 71.3123 12.1242 71.1733 11.7461L71.1586 11.7062C70.6719 10.3825 70.2291 9.17834 70.1959 9.06228C70.0671 8.71868 70.0456 8.43951 70.0456 8.11739V2.81317C70.0456 2.51253 70.0671 2.27631 70.2818 2.06156C70.3462 1.99719 70.4749 1.84706 70.6036 1.69687L70.6039 1.69649C70.6641 1.62967 70.7221 1.56286 70.7768 1.49992C70.8979 1.36058 71.0024 1.24027 71.0764 1.1811C71.1408 1.13815 71.1623 1.07373 71.1623 1.03078H67.7478H67.6619H67.5116C67.5331 1.13815 67.6619 1.33142 67.7908 1.50322C67.823 1.54617 67.8498 1.58375 67.8767 1.62133C67.9035 1.65891 67.9303 1.69649 67.9626 1.73944C68.1773 2.06156 68.1773 2.31926 68.1773 2.534V2.59843V7.47316ZM82.7588 8.56836C82.7588 8.56836 82.7158 8.61131 82.4152 8.61131H79.2584V8.52541V8.43951V1.11668C79.2584 1.0952 79.2799 1.05225 79.3014 1.03078H82.1575C82.6729 1.03078 82.7803 1.1811 82.7803 1.50322V8.50394C82.7588 8.50394 82.7588 8.54689 82.7588 8.56836ZM69.0362 16.2778C69.0362 16.8146 68.6067 17.2656 68.0484 17.2656C67.5115 17.2656 67.0605 16.8146 67.0605 16.2778C67.0605 15.7409 67.49 15.2899 68.0484 15.2899C68.5852 15.2899 69.0362 15.7194 69.0362 16.2778ZM67.984 16.471C68.1558 16.5354 68.2846 16.3851 68.3276 16.3207C68.2631 16.2348 67.9625 16.1274 67.8551 16.1274C67.8122 16.1704 67.7907 16.2133 67.7907 16.2778C67.8122 16.3636 67.8766 16.4281 67.984 16.471ZM72.0861 17.4159C72.0861 16.5999 71.4203 15.9341 70.6043 15.9341C69.7883 15.9341 69.1226 16.5999 69.1226 17.4159C69.1226 18.2319 69.7883 18.8976 70.6043 18.8976C71.4203 18.8976 72.0861 18.2534 72.0861 17.4159ZM71.0767 17.8669C70.9909 17.9742 70.8191 18.0172 70.6902 18.0172H70.6473C70.4755 18.0172 70.2178 17.9313 70.1104 17.7595C70.0245 17.6306 70.003 17.4803 70.0674 17.287C70.0889 17.2226 70.3037 17.1367 70.6043 17.1582C70.8405 17.1797 71.0982 17.287 71.1412 17.4588C71.1841 17.6521 71.1626 17.781 71.0767 17.8669ZM67.9197 18.8977C67.9197 18.4682 67.5761 18.1246 67.1466 18.1246C66.7171 18.1246 66.3735 18.4682 66.3735 18.8977C66.3735 19.3272 66.7171 19.6707 67.1466 19.6707C67.5761 19.6922 67.9197 19.3272 67.9197 18.8977ZM67.3399 18.9406C67.3399 18.9621 67.3184 19.0265 67.2969 19.0695C67.2969 19.0909 67.254 19.1339 67.2325 19.1124C67.2211 19.1086 67.2049 19.1041 67.1858 19.0988L67.1854 19.0987L67.1851 19.0986L67.1845 19.0985L67.1844 19.0984C67.0957 19.0739 66.9455 19.0324 66.9104 18.9621V18.8977C66.9963 18.8762 67.254 18.8977 67.3399 18.9406ZM52.351 21.0881C52.3939 21.1095 52.4369 21.131 52.4798 21.131C52.5308 21.131 52.5683 21.1176 52.6137 21.1013C52.6256 21.097 52.6382 21.0925 52.6516 21.0881C53.0596 20.9163 53.7253 20.1217 53.8757 19.6278C54.026 19.0694 53.8327 18.5755 53.7039 18.3178L53.6824 18.2749C53.618 18.0816 53.4032 17.9742 53.1455 17.9742C52.9093 17.9742 52.716 18.0601 52.5657 18.2319C52.5572 18.2438 52.5458 18.2593 52.532 18.278C52.3706 18.4968 51.8802 19.1615 51.9 19.7352L51.9015 19.7487C51.9654 20.3243 52.0313 20.9176 52.351 21.0881ZM13.8041 11.3171H13.7182C13.4176 11.3171 12.6875 11.1883 12.6445 10.8232C12.5371 10.3078 13.5679 6.52828 13.9759 5.96994C14.0189 5.88404 14.1263 5.84109 14.2981 5.84109C14.749 5.84109 15.608 6.14174 15.9731 6.42091C16.3596 6.72155 16.0375 7.27989 15.608 7.96708C15.4147 8.26772 15.2 8.61132 15.0282 8.97638C14.8134 9.3844 14.6416 9.79242 14.4913 10.1575C14.1263 11.0165 13.9974 11.2956 13.8041 11.3171ZM39.874 11.3171H39.9599C40.1532 11.2956 40.282 11.0165 40.6471 10.1575C40.7974 9.79242 40.9692 9.40588 41.184 8.97638C41.3558 8.61132 41.5705 8.26772 41.7638 7.96708C42.1933 7.27989 42.5154 6.72155 42.1288 6.42091C41.7638 6.14174 40.8833 5.84109 40.4538 5.84109C40.282 5.84109 40.1746 5.88404 40.1317 5.96994C39.7237 6.52828 38.6929 10.3078 38.8003 10.8232C38.8432 11.1883 39.5734 11.3171 39.874 11.3171Z" fill="white"/>
</svg>
