<svg width="16" height="9" viewBox="0 0 16 9" fill="none" xmlns="http://www.w3.org/2000/svg">
<path d="M0 0.656509C0.0944533 0.511674 0.230886 0.439257 0.398803 0.428912C0.482761 0.423739 0.56672 0.418567 0.650678 0.418567C1.32759 0.413394 2.00451 0.408221 2.68142 0.408221C3.02775 0.408221 3.25864 0.558228 3.41081 0.87376C3.81486 1.70656 4.23466 2.52901 4.66494 3.34629C4.84336 3.68768 5.07424 4.00322 5.38909 4.24633C5.46255 4.30323 5.54126 4.35496 5.63047 4.38599C5.82462 4.45841 5.97155 4.39634 6.07125 4.22047C6.22342 3.95666 6.23392 3.66182 6.2654 3.37215C6.34411 2.69971 6.33362 2.03243 6.19719 1.36516C6.11323 0.966868 5.87185 0.754789 5.47829 0.672027C5.27889 0.630645 5.26315 0.578919 5.40483 0.434085C5.5675 0.258214 5.77215 0.144416 6.00828 0.108207C6.91083 -0.0262816 7.81339 -0.0417996 8.71594 0.0978621C9.16197 0.165107 9.32989 0.320286 9.36662 0.837552C9.3981 1.23585 9.36137 1.63931 9.36137 2.03761C9.35612 2.57039 9.34038 3.10317 9.34563 3.64113C9.34563 3.79631 9.38236 3.96183 9.44008 4.10667C9.56077 4.4222 9.80216 4.46875 10.0645 4.25668C10.4843 3.91011 10.7677 3.46009 11.0563 3.01524C11.4971 2.33762 11.8539 1.6238 12.1582 0.878933C12.3209 0.480638 12.3944 0.439257 12.8194 0.439257C13.659 0.434085 14.4986 0.418567 15.3329 0.413394C15.4589 0.413394 15.5953 0.428912 15.716 0.46512C15.9574 0.532365 16.0308 0.666854 15.9888 0.909969C15.9206 1.2824 15.7475 1.61345 15.5323 1.91346C14.9866 2.68419 14.4199 3.4394 13.8636 4.19978C13.7377 4.37047 13.6118 4.54117 13.5068 4.72221C13.3232 5.03257 13.3546 5.30673 13.6065 5.56536C13.9738 5.93779 14.3569 6.2947 14.7295 6.65679C15.1335 7.05508 15.5218 7.47407 15.8157 7.96547C15.8734 8.06375 15.9259 8.17755 15.9574 8.28617C16.0676 8.68447 15.8734 8.90172 15.4798 8.93793C15.1283 8.97414 14.7714 8.96379 14.4199 8.97414C13.9633 8.98448 13.5016 9 13.0451 9C12.6567 9 12.2999 8.86034 12.0166 8.61722C11.7017 8.34825 11.4184 8.03271 11.1245 7.73787C10.9094 7.52062 10.6995 7.30337 10.4791 7.09129C10.4213 7.03439 10.3479 6.99301 10.2744 6.95163C10.0803 6.85335 9.93859 6.87404 9.77592 7.01887C9.49256 7.27233 9.42434 7.61373 9.38236 7.96547C9.36137 8.11548 9.36662 8.27066 9.35613 8.42583C9.33514 8.74137 9.18296 8.91724 8.86812 8.9431C7.4933 9.05173 6.19194 8.89137 5.01127 8.08961C4.22416 7.55683 3.58923 6.8999 3.02251 6.15504C1.8156 4.56704 0.881564 2.82385 0.0734637 1.01342C0.0419792 0.961695 0.0209896 0.915141 0 0.87376C0 0.801343 0 0.728926 0 0.656509Z" fill="#505050"/>
</svg>
