<svg width="15" height="11" viewBox="0 0 15 11" fill="none" xmlns="http://www.w3.org/2000/svg">
<path d="M14.8892 2.59691V2.59244C14.8754 2.47623 14.7508 1.43478 14.2292 0.907355C13.6246 0.286063 12.9415 0.210077 12.6138 0.174319C12.5862 0.16985 12.5631 0.16985 12.54 0.16538L12.5123 0.16091C10.5277 0.0223487 7.53692 0.00446973 7.50461 0H7.5H7.49538C7.46769 0 4.47231 0.0178789 2.46923 0.16091L2.44153 0.16538C2.41846 0.16985 2.39538 0.16985 2.3723 0.174319C2.04923 0.210077 1.37076 0.286063 0.766147 0.929703C0.267686 1.45266 0.124611 2.47176 0.110765 2.5835V2.59691C0.106149 2.64608 0 3.80374 0 4.96587V6.05201C0 7.21414 0.106149 8.3718 0.110765 8.42097V8.42991C0.124611 8.54612 0.249229 9.56522 0.770767 10.0926C1.33846 10.6916 2.05384 10.772 2.44153 10.8167C2.50153 10.8257 2.55692 10.8302 2.58922 10.8346L2.62615 10.8391C3.77076 10.9464 7.36154 10.9955 7.51385 11H7.51846H7.52308C7.55077 11 10.5462 10.9821 12.5308 10.8391L12.5585 10.8346C12.5815 10.8302 12.6138 10.8302 12.6415 10.8257C12.9646 10.7944 13.6385 10.7229 14.2338 10.0882C14.7323 9.56522 14.8754 8.54612 14.8892 8.43438V8.42097C14.8938 8.3718 15 7.21414 15 6.05201V4.96587C15 3.80374 14.8938 2.64608 14.8892 2.59691ZM9.49846 5.61845L6.57692 7.7371C6.33692 7.91142 5.99077 7.74604 5.99077 7.45551V3.21373C5.99077 2.9232 6.33231 2.75782 6.57692 2.93214L9.49846 5.05079C9.69231 5.19382 9.69231 5.47542 9.49846 5.61845Z" fill="#505050"/>
</svg>
